<svg width="512" height="512" xmlns="http://www.w3.org/2000/svg" xml:space="preserve" version="1.1">
 <metadata>image/svg+xml</metadata>

 <g>
  <title>Layer 1</title>
  <path id="svg_1" fill-rule="evenodd" fill="#ffffff" d="m493.39,231.32c0,-66.792 -51.373,-121.57 -116.79,-126.92c-17.61,-49.223 -64.67,-84.403 -119.9,-84.403c-55.257,0 -102.28,35.181 -119.89,84.403c-65.415,5.346 -116.81,60.123 -116.81,126.92c0,39.217 17.776,74.315 45.695,97.659c-2.536,9.991 -3.873,20.492 -3.873,31.267c0,70.334 57.009,127.36 127.36,127.36c24.805,0 47.955,-7.083 67.522,-19.36c19.568,12.277 42.691,19.36 67.536,19.36c70.32,0 127.34,-57.022 127.34,-127.36c0,-10.774 -1.339,-21.275 -3.874,-31.267c27.906,-23.344 45.681,-58.441 45.681,-97.659l0.003,0z"/>
  <path id="svg_2" fill-rule="evenodd" fill="#003283" d="m258.43,144.8c-32.534,0 -58.923,26.402 -58.923,58.91c0,32.562 26.389,58.952 58.923,58.952c32.563,0 58.952,-26.39 58.952,-58.952c0,-32.508 -26.389,-58.91 -58.952,-58.91zm-0.014,87.339c-15.682,0 -28.4,-12.707 -28.4,-28.43c0,-15.668 12.719,-28.415 28.4,-28.415c15.71,0 28.442,12.746 28.442,28.415c0.001,15.723 -12.732,28.43 -28.442,28.43z"/>
  <path id="svg_3" fill-rule="evenodd" fill="#003283" d="m493.39,231.32c0,-66.792 -51.373,-121.57 -116.79,-126.92c-17.61,-49.223 -64.67,-84.403 -119.9,-84.403c-55.257,0 -102.28,35.181 -119.89,84.403c-65.415,5.346 -116.81,60.123 -116.81,126.92c0,39.217 17.776,74.315 45.695,97.659c-2.536,9.991 -3.873,20.492 -3.873,31.267c0,70.334 57.009,127.36 127.36,127.36c24.805,0 47.955,-7.083 67.522,-19.36c19.568,12.277 42.691,19.36 67.536,19.36c70.32,0 127.34,-57.022 127.34,-127.36c0,-10.774 -1.339,-21.275 -3.874,-31.267c27.906,-23.344 45.681,-58.441 45.681,-97.659l0.003,0zm-67.949,85.864c5.637,12.953 8.75,27.215 8.75,42.234c0,58.621 -47.5,106.11 -106.11,106.11c-26.403,0 -50.587,-9.66 -69.149,-25.617c-18.575,15.957 -42.732,25.617 -69.148,25.617c-58.621,0 -106.11,-47.487 -106.11,-106.11c0,-14.371 2.88,-28.069 8.048,-40.594c-29.931,-18.784 -49.857,-52.035 -49.857,-89.972c0,-58.607 47.486,-106.11 106.09,-106.11c2.205,0 4.354,0.042 6.504,0.221c11.629,-45.985 53.273,-80.007 102.85,-80.007c49.566,0 91.21,34.022 102.84,80.007c2.149,-0.179 4.342,-0.221 6.505,-0.221c58.607,0 106.11,47.5 106.11,106.11c0,36.821 -18.823,69.301 -47.334,88.332l0.011,0z"/>
  <path id="svg_4" fill-rule="evenodd" fill="#e41f20" d="m458.51,231.57c0,-53.702 -43.488,-97.191 -97.19,-97.191c-3.06,0 -6.159,0.179 -9.177,0.427c-9.688,-43.448 -48.479,-75.873 -94.82,-75.873c-46.356,0 -85.134,32.425 -94.808,75.873c-3.004,-0.248 -6.063,-0.427 -9.122,-0.427c-53.702,0 -97.192,43.489 -97.192,97.191c0,35.912 19.499,67.273 48.533,84.101c-5.153,11.85 -8.019,24.846 -8.019,38.583c0,53.701 43.545,97.191 97.205,97.191c24.97,0 47.748,-9.439 64.973,-24.9c17.212,15.461 39.989,24.9 64.96,24.9c53.659,0 97.15,-43.49 97.15,-97.191c0,-14.248 -3.06,-27.808 -8.614,-40.044c27.699,-17.102 46.121,-47.707 46.121,-82.64zm-62.615,76.521c8.792,13.435 13.917,29.462 13.917,46.687c0,47.128 -38.198,85.325 -85.312,85.325c-26.61,0 -50.312,-12.14 -65.965,-31.169c-15.655,19.029 -39.384,31.169 -65.952,31.169c-47.155,0 -85.354,-38.197 -85.354,-85.325c0,-16.716 4.823,-32.342 13.132,-45.516c-30.537,-12.968 -51.979,-43.284 -51.979,-78.547c0,-47.155 38.198,-85.354 85.354,-85.354c6.711,0 13.285,0.812 19.595,2.288c4.438,-42.939 40.734,-76.439 84.858,-76.439c43.917,0 80.089,33.197 84.788,75.873c5.513,-1.116 11.189,-1.722 17.005,-1.722c47.113,0 85.313,38.198 85.313,85.354c0.001,34.272 -20.201,63.817 -49.4,77.376z"/>
  <polygon id="svg_5" fill-rule="evenodd" fill="#ffffff" points="251.3900146484375,171.2830047607422 266.21002197265625,171.2830047607422 259.1500244140625,148.73300170898438 "/>
  <polygon id="svg_6" fill-rule="evenodd" fill="#ffffff" points="236.11000061035156,179.17300415039062 248.94003295898438,171.7729949951172 231.52000427246094,155.7030029296875 "/>
  <polygon id="svg_7" fill-rule="evenodd" fill="#ffffff" points="226.8100128173828,193.64300537109375 234.2200164794922,180.76300048828125 211.13999938964844,175.60299682617188 "/>
  <polygon id="svg_8" fill-rule="evenodd" fill="#ffffff" points="226.00001525878906,210.78298950195312 226.00001525878906,195.96299743652344 203.4300079345703,203.0229949951172 "/>
  <polygon id="svg_9" fill-rule="evenodd" fill="#ffffff" points="233.88002014160156,226.06298828125 226.4700164794922,213.23300170898438 210.4499969482422,230.63299560546875 "/>
  <polygon id="svg_10" fill-rule="evenodd" fill="#ffffff" points="248.32000732421875,235.36300659179688 235.50999450683594,227.9630126953125 230.3000030517578,251.04299926757812 "/>
  <polygon id="svg_11" fill-rule="evenodd" fill="#ffffff" points="265.4800109863281,236.1929931640625 250.6600341796875,236.1929931640625 257.72998046875,258.75299072265625 "/>
  <polygon id="svg_12" fill-rule="evenodd" fill="#ffffff" points="280.78997802734375,228.30300903320312 267.9300231933594,235.7130126953125 285.3599853515625,251.73300170898438 "/>
  <polygon id="svg_13" fill-rule="evenodd" fill="#ffffff" points="290.04998779296875,213.84298706054688 282.6600341796875,226.67300415039062 305.7699890136719,231.8330078125 "/>
  <polygon id="svg_14" fill-rule="evenodd" fill="#ffffff" points="290.8699951171875,196.6929931640625 290.8699951171875,211.51300048828125 313.47003173828125,204.4530029296875 "/>
  <polygon id="svg_15" fill-rule="evenodd" fill="#ffffff" points="283.030029296875,181.41299438476562 290.42999267578125,194.2429962158203 306.4599914550781,176.84300231933594 "/>
  <polygon id="svg_16" fill-rule="evenodd" fill="#ffffff" points="268.55999755859375,172.1129913330078 281.3900146484375,179.51300048828125 286.55999755859375,156.43299865722656 "/>
  <g id="svg_17" transform="matrix(0.090023 0 0 0.090023 -80.42 -66.279)">
   <path id="svg_18" d="m2609.52777,4339.57772c-20.69754,10.93449 -46.47143,16.40207 -77.32168,16.40207c-39.83329,0 -71.72435,-12.82196 -95.67653,-38.46589s-35.92771,-59.29339 -35.92771,-100.94839c0,-44.77857 13.47289,-80.96621 40.41868,-108.56293s61.11621,-41.39396 102.51018,-41.39507c26.55478,0.00022 48.55418,3.84026 65.99707,11.52011l0,34.95132c-20.04661,-11.19464 -42.17596,-16.79196 -66.38807,-16.79196c-32.15211,0.00022 -58.21925,10.73944 -78.20032,32.21764c-19.98107,21.47843 -29.97161,50.1815 -29.97161,86.10921c0,34.10489 9.33983,61.27839 28.01993,81.5205c18.67921,20.24211 43.18457,30.36261 73.51496,30.36261c28.11657,0 52.45864,-6.24825 73.02621,-18.74475l-0.00111,31.82553z"/>
   <path id="svg_19" d="m2877.0084,4351.24112l-32.80303,0l0,-127.69757l-144.88164,0l0,127.69757l-32.80303,0l0,-279.99935l32.80303,0l0,122.82115l144.88164,0l0,-122.82115l32.80303,0l0,279.99935z"/>
   <path id="svg_20" d="m2983.6452,4351.24112l-32.80303,0l0,-279.99935l32.80303,0l0,279.99935z"/>
   <path id="svg_21" d="m3282.78363,4351.24112l-40.22318,0l-144.10408,-223.18193c-3.64487,-5.59721 -6.63881,-11.45457 -8.98182,-17.57286l-1.17156,0c1.04082,5.98821 1.56201,18.81029 1.56201,38.46589l0,202.28778l-32.80303,0l0,-279.99935l42.56586,0l140.19407,219.6607c5.85758,9.11211 9.63252,15.36014 11.32461,18.74475l0.78089,0c-1.30197,-8.07063 -1.9529,-21.80389 -1.95268,-41.19957l0,-197.21143l32.80303,0l0.00589,280.00602z"/>
   <path id="svg_22" d="m3504.61039,4351.24112l-148.39177,0l0,-279.99935l142.14907,0l0,29.67946l-109.34493,0l0,93.13836l101.14389,0l0,29.48396l-101.14389,0l0,98.01921l115.58985,0l-0.00222,29.67835z"/>
   <path id="svg_23" d="m3545.37675,4339.91096l0,-38.66139c4.42576,3.90524 9.73027,7.41981 15.91332,10.54394s12.692,5.76016 19.52564,7.9079c6.83397,2.14795 13.70061,3.8076 20.59979,4.97916c6.89907,1.17156 13.27739,1.75729 19.13575,1.75729c20.17657,0 35.24346,-3.7424 45.20178,-11.22686c9.95799,-7.4849 14.93693,-18.25711 14.93693,-32.31539c-0.00022,-7.54989 -1.65987,-14.12382 -4.97905,-19.72114c-3.31963,-5.59732 -7.90812,-10.70656 -13.76614,-15.32793c-5.85791,-4.62093 -12.78975,-9.0468 -20.79529,-13.27739c-8.00565,-4.23048 -16.62979,-8.68879 -25.87164,-13.37514c-9.76304,-4.94639 -18.87471,-9.95799 -27.33568,-15.03468c-8.46119,-5.07658 -15.81557,-10.67401 -22.06382,-16.79196s-11.16243,-13.04968 -14.74254,-20.79529c-3.57978,-7.74505 -5.36961,-16.82418 -5.36961,-27.23904c0,-12.75643 2.79877,-23.85332 8.39609,-33.29179c5.59743,-9.43725 12.95193,-17.21518 22.06382,-23.33346c9.112,-6.11784 19.49343,-10.67379 31.1435,-13.66839c11.65007,-2.99361 23.52897,-4.49063 35.63446,-4.49085c27.59671,0.00022 47.70775,3.31963 60.33421,9.9581l0,36.90411c-16.53204,-11.45457 -37.74943,-17.18296 -63.65439,-17.18296c-7.15955,0.00022 -14.31932,0.74868 -21.47843,2.24548c-7.15955,1.49725 -13.53843,3.9379 -19.13575,7.32217c-5.59743,3.38472 -10.15349,7.7455 -13.66839,13.08189c-3.51468,5.33728 -5.27197,11.84557 -5.27197,19.52564c0,7.15966 1.33429,13.34293 4.00288,18.54925c2.66836,5.20699 6.60615,9.95832 11.81336,14.25379c5.20687,4.29591 11.55232,8.4613 19.038,12.4965c7.48479,4.03554 16.10882,8.4613 25.87164,13.27739c10.02308,4.94673 19.52564,10.1536 28.50757,15.62007c8.98171,5.46736 16.8575,11.52011 23.62672,18.15936c6.76877,6.63892 12.13882,13.99386 16.10882,22.06382c3.97,8.07074 5.95511,17.31293 5.95533,27.72668c-0.00022,13.79836 -2.70124,25.48175 -8.10317,35.04907c-5.40238,9.56765 -12.692,17.34514 -21.86943,23.33346c-9.17732,5.98788 -19.75336,10.31611 -31.72889,12.98525c-11.97553,2.66847 -24.602,4.00277 -37.8805,4.00277c-4.42587,0 -9.89312,-0.35768 -16.40207,-1.07414c-6.50862,-0.71647 -13.14743,-1.7574 -19.91664,-3.12412c-6.76899,-1.36684 -13.17964,-3.05903 -19.23239,-5.07669c-6.05308,-2.01766 -10.90195,-4.26314 -14.54704,-6.73645l0.00322,0.002z"/>
   <path id="svg_24" d="m3919.27202,4351.24112l-148.39177,0l0,-279.99935l142.14907,0l0,29.67946l-109.34493,0l0,93.13836l101.14389,0l0,29.48396l-101.14389,0l0,98.01921l115.58985,0l-0.00222,29.67835z"/>
   <path id="svg_25" d="m4248.06882,4100.97789l-80.83625,0l0,250.31878l-32.80303,0l0,-250.31878l-80.64186,0l0,-29.67946l194.27892,0l0.00222,29.67946z"/>
   <path id="svg_26" d="m4508.55141,4351.24112l-36.31761,0l-29.67946,-78.49357l-118.7223,0l-27.92218,78.49357l-36.51311,0l107.39214,-279.99935l33.97493,0l107.78759,279.99935zm-76.73628,-107.97753l-43.93325,-119.29992c-1.43204,-3.90491 -2.86398,-10.15316 -4.29569,-18.74475l-0.78089,0c-1.30186,7.94078 -2.79888,14.18936 -4.49096,18.74475l-43.54225,119.29992l97.04304,0z"/>
   <path id="svg_27" d="m4582.41961,4351.24112l-32.80303,0l0,-279.99935l32.80303,0l0,279.99935z"/>
   <path id="svg_28" d="m4688.61209,4245.49297l0,105.82925l-32.80303,0l0,-279.99935l76.93179,0c29.93939,0.00033 53.14289,7.28996 69.60939,21.86943c16.4665,14.57925 24.69975,35.14682 24.69975,61.70161c-0.00022,26.55478 -9.14477,48.29425 -27.43343,65.21618c-18.28932,16.92193 -42.98907,25.384 -74.10036,25.384l-36.90411,-0.00111zm0,-144.49286l0,114.81229l34.36593,0c22.64921,0.00022 39.92993,-5.17411 51.84104,-15.52343c11.91,-10.34843 17.86611,-24.95968 17.86611,-43.8355c-0.00022,-36.96853 -21.86943,-55.45336 -65.60607,-55.45336l-38.467,0z"/>
   <path id="svg_29" d="m5028.29472,4351.24112l-148.39177,0l0,-279.99935l142.14907,0l0,29.67946l-109.34493,0l0,93.13836l101.14389,0l0,29.48396l-101.14389,0l0,98.01921l115.58985,0l-0.00222,29.67835z"/>
   <path id="svg_30" d="m5115.0482,4351.24112l-32.80303,0l0,-279.99935l32.80303,0l0,279.99935z"/>
   <path id="svg_31" d="m3311.44227,4811.55664l-130.2413,0l0,123.98749l-26.35928,0l0,-123.98749l-130.04135,0l0,-144.6817l129.45263,0l0,-82.78903l26.94579,0l0,82.39914l130.2413,0l0.00222,145.07159zm-26.35928,-25.1885l0,-95.09003l-103.87757,0l0,95.09003l103.87757,0zm-130.81891,0.391l0.58539,-95.48103l-103.68207,0l0,95.48103l103.09668,0z"/>
   <path id="svg_32" d="m3738.65595,4634.93944l-88.06089,0l0,27.53118l-25.1885,0l0,-27.53118l-115.20107,0l0,27.53118l-25.1885,0l0,-27.14129l-88.25639,0l0,-21.67393l87.8665,0l0,-29.48396l25.1885,0l0,29.48396l115.20107,0l0,-29.48396l25.1885,0l0,29.09296l88.45189,0l-0.00111,21.67504zm6.24825,242.30991l-164.99823,-0.391l0,58.77243l-25.1885,0l0,-58.38254l-165.57585,0l0,-22.06382l165.57585,0l0,-31.82664l-144.88164,0l0,-22.06382l53.30507,0l0,-41.58946l-74.00261,0l0,-22.45482l73.41721,0l0,-40.80857l-45.49503,0l0,-22.65032l299.52721,0l0,22.25932l-45.69054,0l0,40.80857l74.00261,0l0,22.45482l-73.41721,0l0,41.58946l52.71968,0l0,21.86943l-145.27042,0l0,32.02214l165.96463,0l0.00778,22.45482zm-98.60571,-140.39401l0,-40.80857l-67.36335,0l0,40.80857l67.36335,0zm-92.16196,0l0.58539,-40.80857l-67.36446,0l0,40.80857l66.77907,0zm92.16196,64.43529l0.38989,-41.98046l-67.75436,0l0,41.98046l67.36446,0zm-91.57546,0l0,-41.98046l-66.97346,0l0,41.98046l66.97346,0z"/>
   <path id="svg_33" d="m4127.6581,4623.38712l-147.41427,0l0,14.64479l117.15607,0l0,19.72114l-260.47149,0l0,-19.33014l118.13358,0l0,-14.64479l-148.00299,0l0,-20.89193l147.61421,0l0,-18.74475l25.57839,0l0,18.35375l147.41427,0l-0.00778,20.89193zm-44.32314,104.26746l-233.1347,0l0,-56.81964l233.1347,0l0,56.81964zm-25.1885,-18.74475l0,-19.72114l-182.75992,0l0,19.72114l182.75992,0zm76.34528,84.74182l-24.7975,0l0,-31.24125l-283.90937,0l0,31.24125l-25.1885,0l0,-51.93879l333.89537,0l0,51.93879zm10.34866,127.10884l-354.97835,0l0,-21.47843l165.18707,0l0,-17.18296l-114.81229,0l0,-19.33014l114.81229,0l0,-18.35375l-118.13358,5.27197l-7.61509,-18.54925l32.41314,-1.56201c19.65561,-9.50245 35.53671,-20.30653 47.64332,-32.41314l-61.89711,0l0,-19.91664l238.59984,0l0,19.91664l-144.6817,0c-10.41397,10.80442 -24.01661,21.08743 -40.80857,30.85025l146.83665,-6.44342c-9.24252,-3.90513 -18.87471,-7.09435 -28.89857,-9.56765l20.11214,-11.91111c27.98661,8.20093 52.7841,21.80389 74.39361,40.80857l-19.72114,13.86278c-5.07702,-5.85769 -11.97665,-11.19464 -20.69754,-16.01107l-92.74736,4.49096l0,19.13464l110.71121,0l0,19.33014l-110.71121,0l0,17.18296l164.99823,0l-0.005,21.87065z"/>
   <path id="svg_34" d="m4546.87401,4848.10196c-4.29602,35.01686 -9.99109,56.75521 -17.08521,65.21618c-7.09479,8.46119 -16.49982,12.692 -28.21432,12.692l-68.73075,0c-27.20571,0 -40.80857,-12.43096 -40.80857,-37.294l0,-304.60357l25.96939,0l0,137.4615c37.35842,-13.14743 68.01428,-32.21764 91.96646,-57.21064l20.50204,16.01107c-32.28318,32.28318 -69.77268,54.5425 -112.4685,66.77796l0,140.78279c-0.00022,8.59137 5.20665,12.8875 15.62007,12.8875l59.94432,0c8.07041,0.00011 13.70061,-2.50574 16.88971,-7.51734c3.18888,-5.0116 7.06147,-24.11436 11.61786,-57.30839l24.7975,12.10494zm-219.27192,87.8665l-25.57839,0l0,-52.32868l-103.87757,24.01661l-12.1055,-25.96939l115.97863,-26.94579l0,-132.77392l-95.87204,0l0,-25.57839l95.48103,0l0,-112.26855l25.96939,0l0.00444,351.84812z"/>
  </g>
 </g>
</svg>