<svg width="800" height="600" xmlns="http://www.w3.org/2000/svg" xml:space="preserve" version="1.1">
 <metadata>image/svg+xml</metadata>

 <g>
  <title>Layer 1</title>
  <path id="svg_1" fill-rule="evenodd" fill="#ffffff" d="m643.39,271.32c0,-66.792 -51.373,-121.57 -116.79,-126.92c-17.61,-49.223 -64.67,-84.403 -119.9,-84.403c-55.257,0 -102.28,35.181 -119.89,84.403c-65.415,5.346 -116.81,60.123 -116.81,126.92c0,39.217 17.776,74.315 45.695,97.659c-2.536,9.991 -3.873,20.492 -3.873,31.267c0,70.334 57.009,127.36 127.36,127.36c24.805,0 47.955,-7.083 67.522,-19.36c19.568,12.277 42.691,19.36 67.536,19.36c70.32,0 127.34,-57.022 127.34,-127.36c0,-10.774 -1.339,-21.275 -3.874,-31.267c27.906,-23.344 45.681,-58.441 45.681,-97.659l0.003,0z"/>
  <path id="svg_2" fill-rule="evenodd" fill="#003283" d="m408.43,184.8c-32.534,0 -58.923,26.402 -58.923,58.91c0,32.562 26.389,58.952 58.923,58.952c32.563,0 58.952,-26.39 58.952,-58.952c0,-32.508 -26.389,-58.91 -58.952,-58.91zm-0.014,87.339c-15.682,0 -28.4,-12.707 -28.4,-28.43c0,-15.668 12.719,-28.415 28.4,-28.415c15.71,0 28.442,12.746 28.442,28.415c0.001,15.723 -12.732,28.43 -28.442,28.43z"/>
  <path id="svg_3" fill-rule="evenodd" fill="#003283" d="m643.39,271.32c0,-66.792 -51.373,-121.57 -116.79,-126.92c-17.61,-49.223 -64.67,-84.403 -119.9,-84.403c-55.257,0 -102.28,35.181 -119.89,84.403c-65.415,5.346 -116.81,60.123 -116.81,126.92c0,39.217 17.776,74.315 45.695,97.659c-2.536,9.991 -3.873,20.492 -3.873,31.267c0,70.334 57.009,127.36 127.36,127.36c24.805,0 47.955,-7.083 67.522,-19.36c19.568,12.277 42.691,19.36 67.536,19.36c70.32,0 127.34,-57.022 127.34,-127.36c0,-10.774 -1.339,-21.275 -3.874,-31.267c27.906,-23.344 45.681,-58.441 45.681,-97.659l0.003,0zm-67.949,85.864c5.637,12.953 8.75,27.215 8.75,42.234c0,58.621 -47.5,106.11 -106.11,106.11c-26.403,0 -50.587,-9.66 -69.149,-25.617c-18.575,15.957 -42.732,25.617 -69.148,25.617c-58.621,0 -106.11,-47.487 -106.11,-106.11c0,-14.371 2.88,-28.069 8.048,-40.594c-29.931,-18.784 -49.857,-52.035 -49.857,-89.972c0,-58.607 47.486,-106.11 106.09,-106.11c2.205,0 4.354,0.042 6.504,0.221c11.629,-45.985 53.273,-80.007 102.85,-80.007c49.566,0 91.21,34.022 102.84,80.007c2.149,-0.179 4.342,-0.221 6.505,-0.221c58.607,0 106.11,47.5 106.11,106.11c0,36.821 -18.823,69.301 -47.334,88.332l0.011,0z"/>
  <path id="svg_4" fill-rule="evenodd" fill="#e41f20" d="m608.51,271.57c0,-53.702 -43.488,-97.191 -97.19,-97.191c-3.06,0 -6.159,0.179 -9.177,0.427c-9.688,-43.448 -48.479,-75.873 -94.82,-75.873c-46.356,0 -85.134,32.425 -94.808,75.873c-3.004,-0.248 -6.063,-0.427 -9.122,-0.427c-53.702,0 -97.192,43.489 -97.192,97.191c0,35.912 19.499,67.273 48.533,84.101c-5.153,11.85 -8.019,24.846 -8.019,38.583c0,53.701 43.545,97.191 97.205,97.191c24.97,0 47.748,-9.439 64.973,-24.9c17.212,15.461 39.989,24.9 64.96,24.9c53.659,0 97.15,-43.49 97.15,-97.191c0,-14.248 -3.06,-27.808 -8.614,-40.044c27.699,-17.102 46.121,-47.707 46.121,-82.64zm-62.615,76.521c8.792,13.435 13.917,29.462 13.917,46.687c0,47.128 -38.198,85.325 -85.312,85.325c-26.61,0 -50.312,-12.14 -65.965,-31.169c-15.655,19.029 -39.384,31.169 -65.952,31.169c-47.155,0 -85.354,-38.197 -85.354,-85.325c0,-16.716 4.823,-32.342 13.132,-45.516c-30.537,-12.968 -51.979,-43.284 -51.979,-78.547c0,-47.155 38.198,-85.354 85.354,-85.354c6.711,0 13.285,0.812 19.595,2.288c4.438,-42.939 40.734,-76.439 84.858,-76.439c43.917,0 80.089,33.197 84.788,75.873c5.513,-1.116 11.189,-1.722 17.005,-1.722c47.113,0 85.313,38.198 85.313,85.354c0.001,34.272 -20.201,63.817 -49.4,77.376z"/>
  <polygon id="svg_5" fill-rule="evenodd" fill="#ffffff" points="401.3900146484375,211.2830047607422 416.21002197265625,211.2830047607422 409.1500244140625,188.73300170898438 "/>
  <polygon id="svg_6" fill-rule="evenodd" fill="#ffffff" points="386.1099853515625,219.17300415039062 398.9400329589844,211.7729949951172 381.5199890136719,195.7030029296875 "/>
  <polygon id="svg_7" fill-rule="evenodd" fill="#ffffff" points="376.80999755859375,233.64300537109375 384.22003173828125,220.76300048828125 361.1400146484375,215.60299682617188 "/>
  <polygon id="svg_8" fill-rule="evenodd" fill="#ffffff" points="376.0000305175781,250.78298950195312 376.0000305175781,235.96299743652344 353.42999267578125,243.0229949951172 "/>
  <polygon id="svg_9" fill-rule="evenodd" fill="#ffffff" points="383.8800354003906,266.06298828125 376.47003173828125,253.23300170898438 360.4499816894531,270.63299560546875 "/>
  <polygon id="svg_10" fill-rule="evenodd" fill="#ffffff" points="398.32000732421875,275.3630065917969 385.5099792480469,267.9630126953125 380.3000183105469,291.0429992675781 "/>
  <polygon id="svg_11" fill-rule="evenodd" fill="#ffffff" points="415.4800109863281,276.1929931640625 400.6600341796875,276.1929931640625 407.72998046875,298.75299072265625 "/>
  <polygon id="svg_12" fill-rule="evenodd" fill="#ffffff" points="430.78997802734375,268.3030090332031 417.9300231933594,275.7130126953125 435.3599853515625,291.7330017089844 "/>
  <polygon id="svg_13" fill-rule="evenodd" fill="#ffffff" points="440.04998779296875,253.84298706054688 432.6600341796875,266.6730041503906 455.7699890136719,271.8330078125 "/>
  <polygon id="svg_14" fill-rule="evenodd" fill="#ffffff" points="440.8699951171875,236.6929931640625 440.8699951171875,251.51300048828125 463.47003173828125,244.4530029296875 "/>
  <polygon id="svg_15" fill-rule="evenodd" fill="#ffffff" points="433.030029296875,221.41299438476562 440.42999267578125,234.2429962158203 456.4599914550781,216.84300231933594 "/>
  <polygon id="svg_16" fill-rule="evenodd" fill="#ffffff" points="418.55999755859375,212.1129913330078 431.3900146484375,219.51300048828125 436.55999755859375,196.43299865722656 "/>
 </g>
</svg>